# xmcd CD database file
#
# Track frame offsets:
#	150
#	19450
#	49491
#	67164
#	87972
#	108495
#	134968
#	152971
#	173209
#
# Disc length: 2827 seconds
#
# Revision: 0
# Processed by: cddbd v1.5.2PL0 Copyright (c) Steve Scherf et al.
# Submitted via: CDex 1.70beta2
#
DISCID=8c0b0909
DTITLE=Storyville - Live at Antones
DYEAR=2007
DGENRE=Blues
TTITLE0=Blind Side
TTITLE1=Bitter Rain
TTITLE2=Keep a Handle On It
TTITLE3=Under Stone
TTITLE4=Bluest Eyes
TTITLE5=Don't Make Me Cry
TTITLE6=Born Without You
TTITLE7=Piece of Your Soul
TTITLE8=What Passes for Love
EXTD=YEAR: 2007
EXTT0=
EXTT1=
EXTT2=
EXTT3=
EXTT4=
EXTT5=
EXTT6=
EXTT7=
EXTT8=
PLAYORDER=
